<mxfile host="app.diagrams.net" modified="2020-08-26T15:39:27.586Z" agent="5.0 (Windows NT 10.0; Win64; x64) AppleWebKit/537.36 (KHTML, like Gecko) Chrome/84.0.4147.135 Safari/537.36" etag="S7RaxsDPLsfaWP4jlv1Y" version="13.6.5" type="github">
  <diagram id="oyS-1h2ddGnfr714yjCY" name="Thống kê điểm môn học của toàn bộ SV trong 1 khoa">
    <mxGraphModel dx="1422" dy="3142" grid="1" gridSize="10" guides="1" tooltips="1" connect="1" arrows="1" fold="1" page="1" pageScale="1" pageWidth="827" pageHeight="1169" math="0" shadow="0">
      <root>
        <mxCell id="0" />
        <mxCell id="1" parent="0" />
        <mxCell id="_3rJmXygobrUnK-H9SfO-1" value="" style="endArrow=none;html=1;fontSize=10;strokeColor=#E6E6E6;" edge="1" parent="1">
          <mxGeometry width="50" height="50" relative="1" as="geometry">
            <mxPoint x="340" y="-40.000000000000455" as="sourcePoint" />
            <mxPoint x="339.5" y="-790" as="targetPoint" />
          </mxGeometry>
        </mxCell>
        <mxCell id="_3rJmXygobrUnK-H9SfO-2" value="" style="endArrow=none;html=1;fontSize=10;strokeColor=#E6E6E6;" edge="1" parent="1">
          <mxGeometry width="50" height="50" relative="1" as="geometry">
            <mxPoint x="420" y="-40.000000000000455" as="sourcePoint" />
            <mxPoint x="420" y="-790" as="targetPoint" />
          </mxGeometry>
        </mxCell>
        <mxCell id="_3rJmXygobrUnK-H9SfO-3" value="" style="endArrow=none;html=1;fontSize=10;strokeColor=#E6E6E6;" edge="1" parent="1">
          <mxGeometry width="50" height="50" relative="1" as="geometry">
            <mxPoint x="380" y="-40.000000000000455" as="sourcePoint" />
            <mxPoint x="380" y="-790" as="targetPoint" />
          </mxGeometry>
        </mxCell>
        <mxCell id="_3rJmXygobrUnK-H9SfO-4" value="" style="rounded=0;whiteSpace=wrap;html=1;fillColor=#206091;fontColor=#000000;gradientColor=none;strokeColor=#206091;" vertex="1" parent="1">
          <mxGeometry y="-1160" width="1920" height="60" as="geometry" />
        </mxCell>
        <mxCell id="_3rJmXygobrUnK-H9SfO-5" value="Digi Curriculum" style="rounded=0;whiteSpace=wrap;html=1;fontSize=28;fontFamily=Helvetica;fontStyle=1;strokeColor=none;fillColor=none;fontColor=#FFFFFF;" vertex="1" parent="1">
          <mxGeometry y="-1160" width="280" height="60" as="geometry" />
        </mxCell>
        <mxCell id="_3rJmXygobrUnK-H9SfO-6" value="Curriculum" style="rounded=0;whiteSpace=wrap;html=1;fontSize=20;fontFamily=Helvetica;fontStyle=1;strokeColor=none;fillColor=none;fontColor=#FFFFFF;" vertex="1" parent="1">
          <mxGeometry x="280" y="-1160" width="240" height="60" as="geometry" />
        </mxCell>
        <mxCell id="_3rJmXygobrUnK-H9SfO-7" value="Courses" style="rounded=0;whiteSpace=wrap;html=1;fontSize=20;fontFamily=Helvetica;fontStyle=1;strokeColor=none;fillColor=none;fontColor=#FFFFFF;" vertex="1" parent="1">
          <mxGeometry x="520" y="-1160" width="240" height="60" as="geometry" />
        </mxCell>
        <mxCell id="_3rJmXygobrUnK-H9SfO-8" value="Students" style="rounded=0;whiteSpace=wrap;html=1;fontSize=20;fontFamily=Helvetica;fontStyle=1;strokeColor=none;fillColor=none;fontColor=#FFFFFF;" vertex="1" parent="1">
          <mxGeometry x="760" y="-1160" width="240" height="60" as="geometry" />
        </mxCell>
        <mxCell id="_3rJmXygobrUnK-H9SfO-9" value="ADMIN" style="rounded=0;whiteSpace=wrap;html=1;fillColor=none;fontSize=24;verticalAlign=middle;strokeColor=none;fontColor=#FFFFFF;align=center;" vertex="1" parent="1">
          <mxGeometry x="1680" y="-1160" width="180" height="60" as="geometry" />
        </mxCell>
        <mxCell id="_3rJmXygobrUnK-H9SfO-10" value="" style="shape=image;aspect=fixed;image=data:image/svg+xml,PD94bWwgdmVyc2lvbj0iMS4wIj8+CjxzdmcgeG1sbnM9Imh0dHA6Ly93d3cudzMub3JnLzIwMDAvc3ZnIiB4bWxuczp4bGluaz0iaHR0cDovL3d3dy53My5vcmcvMTk5OS94bGluayIgdmVyc2lvbj0iMS4xIiBpZD0iQ2FwYV8xIiB4PSIwcHgiIHk9IjBweCIgd2lkdGg9IjUxMnB4IiBoZWlnaHQ9IjUxMnB4IiB2aWV3Qm94PSIwIDAgMjU1IDI1NSIgc3R5bGU9ImVuYWJsZS1iYWNrZ3JvdW5kOm5ldyAwIDAgMjU1IDI1NTsiIHhtbDpzcGFjZT0icHJlc2VydmUiIGNsYXNzPSIiPjxnPjxnPgoJPGcgaWQ9ImFycm93LWRyb3AtZG93biI+CgkJPHBvbHlnb24gcG9pbnRzPSIwLDYzLjc1IDEyNy41LDE5MS4yNSAyNTUsNjMuNzUgICAiIGRhdGEtb3JpZ2luYWw9IiMwMDAwMDAiIGNsYXNzPSJhY3RpdmUtcGF0aCIgZGF0YS1vbGRfY29sb3I9IiMwMDAwMDAiIGZpbGw9IiNGRkZGRkYiLz4KCTwvZz4KPC9nPjwvZz4gPC9zdmc+Cg==;" vertex="1" parent="1">
          <mxGeometry x="1880" y="-1140" width="20" height="20" as="geometry" />
        </mxCell>
        <mxCell id="_3rJmXygobrUnK-H9SfO-11" value="" style="shape=image;aspect=fixed;image=data:image/svg+xml,PD94bWwgdmVyc2lvbj0iMS4wIj8+CjxzdmcgeG1sbnM9Imh0dHA6Ly93d3cudzMub3JnLzIwMDAvc3ZnIiB4bWxuczp4bGluaz0iaHR0cDovL3d3dy53My5vcmcvMTk5OS94bGluayIgdmVyc2lvbj0iMS4xIiBpZD0iQ2FwYV8xIiB4PSIwcHgiIHk9IjBweCIgdmlld0JveD0iMCAwIDE0IDE0IiBzdHlsZT0iZW5hYmxlLWJhY2tncm91bmQ6bmV3IDAgMCAxNCAxNDsiIHhtbDpzcGFjZT0icHJlc2VydmUiIHdpZHRoPSI1MTJweCIgaGVpZ2h0PSI1MTJweCIgY2xhc3M9ImhvdmVyZWQtcGF0aHMiPjxnPjxnPgoJPGc+CgkJPHBhdGggZD0iTTcsOUw1LjI2OCw3LjQ4NGwtNC45NTIsNC4yNDVDMC40OTYsMTEuODk2LDAuNzM5LDEyLDEuMDA3LDEyaDExLjk4NiAgICBjMC4yNjcsMCwwLjUwOS0wLjEwNCwwLjY4OC0wLjI3MUw4LjczMiw3LjQ4NEw3LDl6IiBkYXRhLW9yaWdpbmFsPSIjMDMwMTA0IiBjbGFzcz0iYWN0aXZlLXBhdGgiIGRhdGEtb2xkX2NvbG9yPSIjMDMwMTA0IiBmaWxsPSIjRkZGRkZGIi8+CgkJPHBhdGggZD0iTTEzLjY4NCwyLjI3MUMxMy41MDQsMi4xMDMsMTMuMjYyLDIsMTIuOTkzLDJIMS4wMDdDMC43NCwyLDAuNDk4LDIuMTA0LDAuMzE4LDIuMjczTDcsOCAgICBMMTMuNjg0LDIuMjcxeiIgZGF0YS1vcmlnaW5hbD0iIzAzMDEwNCIgY2xhc3M9ImFjdGl2ZS1wYXRoIiBkYXRhLW9sZF9jb2xvcj0iIzAzMDEwNCIgZmlsbD0iI0ZGRkZGRiIvPgoJCTxwb2x5Z29uIHBvaW50cz0iMCwyLjg3OCAwLDExLjE4NiA0LjgzMyw3LjA3OSAgICIgZGF0YS1vcmlnaW5hbD0iIzAzMDEwNCIgY2xhc3M9ImFjdGl2ZS1wYXRoIiBkYXRhLW9sZF9jb2xvcj0iIzAzMDEwNCIgZmlsbD0iI0ZGRkZGRiIvPgoJCTxwb2x5Z29uIHBvaW50cz0iOS4xNjcsNy4wNzkgMTQsMTEuMTg2IDE0LDIuODc1ICAgIiBkYXRhLW9yaWdpbmFsPSIjMDMwMTA0IiBjbGFzcz0iYWN0aXZlLXBhdGgiIGRhdGEtb2xkX2NvbG9yPSIjMDMwMTA0IiBmaWxsPSIjRkZGRkZGIi8+Cgk8L2c+CjwvZz48L2c+IDwvc3ZnPgo=;" vertex="1" parent="1">
          <mxGeometry x="1640" y="-1140" width="20" height="20" as="geometry" />
        </mxCell>
        <mxCell id="_3rJmXygobrUnK-H9SfO-12" value="Faculty" style="rounded=0;whiteSpace=wrap;html=1;fontSize=20;fontFamily=Helvetica;fontStyle=1;strokeColor=none;fillColor=none;fontColor=#FFFFFF;" vertex="1" parent="1">
          <mxGeometry x="1000" y="-1160" width="240" height="60" as="geometry" />
        </mxCell>
        <mxCell id="_3rJmXygobrUnK-H9SfO-13" value="Statistics" style="rounded=0;whiteSpace=wrap;html=1;fontSize=20;fontFamily=Helvetica;fontStyle=1;strokeColor=none;fillColor=none;fontColor=#FFFFFF;" vertex="1" parent="1">
          <mxGeometry x="1240" y="-1160" width="240" height="60" as="geometry" />
        </mxCell>
        <mxCell id="_3rJmXygobrUnK-H9SfO-14" value="" style="rounded=0;whiteSpace=wrap;html=1;fillColor=#66B2FF;strokeColor=none;" vertex="1" parent="1">
          <mxGeometry x="1240" y="-1110" width="240" height="10" as="geometry" />
        </mxCell>
        <mxCell id="_3rJmXygobrUnK-H9SfO-15" value="" style="endArrow=none;html=1;fontSize=11;fontColor=#000000;" edge="1" parent="1">
          <mxGeometry width="50" height="50" relative="1" as="geometry">
            <mxPoint x="1920.0000000000005" y="-1200" as="sourcePoint" />
            <mxPoint x="0.9999999999997726" y="-1200" as="targetPoint" />
          </mxGeometry>
        </mxCell>
        <mxCell id="_3rJmXygobrUnK-H9SfO-16" value="Major" style="html=1;shadow=0;dashed=0;shape=mxgraph.bootstrap.rrect;rSize=5;strokeColor=#dddddd;spacingRight=10;fontSize=16;whiteSpace=wrap;fillColor=#ffffff;align=center;" vertex="1" parent="1">
          <mxGeometry x="40" y="-1030" width="220" height="40" as="geometry" />
        </mxCell>
        <mxCell id="_3rJmXygobrUnK-H9SfO-17" value="" style="shape=triangle;direction=south;fillColor=#000000;strokeColor=none;perimeter=none;" vertex="1" parent="_3rJmXygobrUnK-H9SfO-16">
          <mxGeometry x="1" y="0.5" width="10" height="5" relative="1" as="geometry">
            <mxPoint x="-20" y="-2.5" as="offset" />
          </mxGeometry>
        </mxCell>
        <mxCell id="_3rJmXygobrUnK-H9SfO-18" value="Sub Major" style="html=1;shadow=0;dashed=0;shape=mxgraph.bootstrap.rrect;rSize=5;strokeColor=#dddddd;spacingRight=10;fontSize=16;whiteSpace=wrap;fillColor=#ffffff;align=center;" vertex="1" parent="1">
          <mxGeometry x="280" y="-1030" width="220" height="40" as="geometry" />
        </mxCell>
        <mxCell id="_3rJmXygobrUnK-H9SfO-19" value="" style="shape=triangle;direction=south;fillColor=#000000;strokeColor=none;perimeter=none;" vertex="1" parent="_3rJmXygobrUnK-H9SfO-18">
          <mxGeometry x="1" y="0.5" width="10" height="5" relative="1" as="geometry">
            <mxPoint x="-20" y="-2.5" as="offset" />
          </mxGeometry>
        </mxCell>
        <mxCell id="_3rJmXygobrUnK-H9SfO-20" value="Program Type" style="html=1;shadow=0;dashed=0;shape=mxgraph.bootstrap.rrect;rSize=5;strokeColor=#dddddd;spacingRight=10;fontSize=16;whiteSpace=wrap;fillColor=#ffffff;align=center;" vertex="1" parent="1">
          <mxGeometry x="520" y="-1030" width="220" height="40" as="geometry" />
        </mxCell>
        <mxCell id="_3rJmXygobrUnK-H9SfO-21" value="" style="shape=triangle;direction=south;fillColor=#000000;strokeColor=none;perimeter=none;" vertex="1" parent="_3rJmXygobrUnK-H9SfO-20">
          <mxGeometry x="1" y="0.5" width="10" height="5" relative="1" as="geometry">
            <mxPoint x="-20" y="-2.5" as="offset" />
          </mxGeometry>
        </mxCell>
        <mxCell id="_3rJmXygobrUnK-H9SfO-22" value="IE2" style="ellipse;whiteSpace=wrap;html=1;aspect=fixed;fontSize=12;align=center;fillColor=#206091;strokeColor=#206091;fontColor=#FFFFFF;" vertex="1" parent="1">
          <mxGeometry x="940" y="-1030" width="40" height="40" as="geometry" />
        </mxCell>
        <mxCell id="_3rJmXygobrUnK-H9SfO-23" value="AE1" style="ellipse;whiteSpace=wrap;html=1;aspect=fixed;fontSize=12;align=center;fillColor=#206091;strokeColor=#206091;fontColor=#FFFFFF;" vertex="1" parent="1">
          <mxGeometry x="990" y="-1030" width="40" height="40" as="geometry" />
        </mxCell>
        <mxCell id="_3rJmXygobrUnK-H9SfO-24" value="IE1" style="ellipse;whiteSpace=wrap;html=1;aspect=fixed;fontSize=12;align=center;fillColor=#206091;strokeColor=#206091;fontColor=#FFFFFF;" vertex="1" parent="1">
          <mxGeometry x="890" y="-1030" width="40" height="40" as="geometry" />
        </mxCell>
        <mxCell id="_3rJmXygobrUnK-H9SfO-25" value="Tiến độ học tập" style="text;html=1;strokeColor=none;fillColor=none;align=center;verticalAlign=middle;whiteSpace=wrap;rounded=0;fontFamily=Helvetica;fontSize=20;fontColor=#000000;fontStyle=1" vertex="1" parent="1">
          <mxGeometry x="40" y="-1090" width="240" height="40" as="geometry" />
        </mxCell>
        <mxCell id="_3rJmXygobrUnK-H9SfO-26" value="Tổng hợp môn" style="text;html=1;strokeColor=none;fillColor=none;align=center;verticalAlign=middle;whiteSpace=wrap;rounded=0;fontFamily=Helvetica;fontSize=20;fontColor=#000000;fontStyle=1" vertex="1" parent="1">
          <mxGeometry x="280" y="-1090" width="240" height="40" as="geometry" />
        </mxCell>
        <mxCell id="_3rJmXygobrUnK-H9SfO-27" value="" style="endArrow=none;html=1;fontSize=11;fontColor=#000000;" edge="1" parent="1">
          <mxGeometry width="50" height="50" relative="1" as="geometry">
            <mxPoint x="1920.0000000000005" y="-980" as="sourcePoint" />
            <mxPoint x="2.2737367544323206e-13" y="-980" as="targetPoint" />
          </mxGeometry>
        </mxCell>
        <mxCell id="_3rJmXygobrUnK-H9SfO-28" value="" style="endArrow=none;html=1;fontSize=11;fontColor=#000000;" edge="1" parent="1">
          <mxGeometry width="50" height="50" relative="1" as="geometry">
            <mxPoint x="1920.0000000000005" y="-1040" as="sourcePoint" />
            <mxPoint x="2.2737367544323206e-13" y="-1040" as="targetPoint" />
          </mxGeometry>
        </mxCell>
        <mxCell id="_3rJmXygobrUnK-H9SfO-29" value="" style="endArrow=none;html=1;strokeColor=#CCCCCC;strokeWidth=2;" edge="1" parent="1">
          <mxGeometry width="50" height="50" relative="1" as="geometry">
            <mxPoint x="260" y="-750.5" as="sourcePoint" />
            <mxPoint x="1740.0000000000005" y="-750" as="targetPoint" />
          </mxGeometry>
        </mxCell>
        <mxCell id="_3rJmXygobrUnK-H9SfO-30" value="Nguyễn Văn A" style="text;html=1;strokeColor=none;fillColor=none;align=right;verticalAlign=middle;whiteSpace=wrap;rounded=0;fontSize=10;" vertex="1" parent="1">
          <mxGeometry x="40" y="-760" width="200" height="20" as="geometry" />
        </mxCell>
        <mxCell id="_3rJmXygobrUnK-H9SfO-31" value="" style="ellipse;whiteSpace=wrap;html=1;aspect=fixed;fontSize=10;align=right;fillColor=#CCCCCC;strokeColor=#CCCCCC;" vertex="1" parent="1">
          <mxGeometry x="250" y="-755" width="10" height="10" as="geometry" />
        </mxCell>
        <mxCell id="_3rJmXygobrUnK-H9SfO-32" value="Nguyễn Hoàng Thanh Phương Nguyên" style="text;html=1;strokeColor=none;fillColor=none;align=right;verticalAlign=middle;whiteSpace=wrap;rounded=0;fontSize=10;" vertex="1" parent="1">
          <mxGeometry x="40" y="-740" width="200" height="20" as="geometry" />
        </mxCell>
        <mxCell id="_3rJmXygobrUnK-H9SfO-33" value="Intermadiate English 1" style="text;html=1;strokeColor=none;fillColor=none;align=right;verticalAlign=middle;whiteSpace=wrap;rounded=0;fontSize=10;rotation=60;" vertex="1" parent="1">
          <mxGeometry x="258" y="-856" width="110" height="20" as="geometry" />
        </mxCell>
        <mxCell id="_3rJmXygobrUnK-H9SfO-34" value="Intermadiate English 2" style="text;html=1;strokeColor=none;fillColor=none;align=right;verticalAlign=middle;whiteSpace=wrap;rounded=0;fontSize=10;rotation=60;" vertex="1" parent="1">
          <mxGeometry x="290" y="-860" width="120" height="20" as="geometry" />
        </mxCell>
        <mxCell id="_3rJmXygobrUnK-H9SfO-35" value="Calculus 1" style="text;html=1;strokeColor=none;fillColor=none;align=right;verticalAlign=middle;whiteSpace=wrap;rounded=0;fontSize=10;rotation=60;" vertex="1" parent="1">
          <mxGeometry x="330" y="-860" width="120" height="20" as="geometry" />
        </mxCell>
        <mxCell id="_3rJmXygobrUnK-H9SfO-36" value="" style="endArrow=none;html=1;fontSize=10;" edge="1" parent="1">
          <mxGeometry width="50" height="50" relative="1" as="geometry">
            <mxPoint x="1960.0000000000005" y="-1160" as="sourcePoint" />
            <mxPoint x="1960.0000000000005" y="-80.00000000000045" as="targetPoint" />
          </mxGeometry>
        </mxCell>
        <mxCell id="_3rJmXygobrUnK-H9SfO-37" value="" style="endArrow=none;html=1;fontSize=10;" edge="1" parent="1">
          <mxGeometry width="50" height="50" relative="1" as="geometry">
            <mxPoint x="1700.0000000000005" y="-840" as="sourcePoint" />
            <mxPoint x="1920.0000000000005" y="-840" as="targetPoint" />
          </mxGeometry>
        </mxCell>
        <mxCell id="_3rJmXygobrUnK-H9SfO-38" value="" style="endArrow=none;html=1;strokeColor=#CCCCCC;strokeWidth=2;" edge="1" parent="1">
          <mxGeometry width="50" height="50" relative="1" as="geometry">
            <mxPoint x="260" y="-730.5" as="sourcePoint" />
            <mxPoint x="1740.0000000000005" y="-730" as="targetPoint" />
          </mxGeometry>
        </mxCell>
        <mxCell id="_3rJmXygobrUnK-H9SfO-39" value="" style="ellipse;whiteSpace=wrap;html=1;aspect=fixed;fontSize=10;align=right;fillColor=#CCCCCC;strokeColor=#CCCCCC;" vertex="1" parent="1">
          <mxGeometry x="250" y="-735" width="10" height="10" as="geometry" />
        </mxCell>
        <mxCell id="_3rJmXygobrUnK-H9SfO-40" value="" style="endArrow=none;html=1;strokeColor=#CCCCCC;strokeWidth=2;" edge="1" parent="1">
          <mxGeometry width="50" height="50" relative="1" as="geometry">
            <mxPoint x="260" y="-710.5" as="sourcePoint" />
            <mxPoint x="1740.0000000000005" y="-710" as="targetPoint" />
          </mxGeometry>
        </mxCell>
        <mxCell id="_3rJmXygobrUnK-H9SfO-41" value="Nguyễn Văn A" style="text;html=1;strokeColor=none;fillColor=none;align=right;verticalAlign=middle;whiteSpace=wrap;rounded=0;fontSize=10;" vertex="1" parent="1">
          <mxGeometry x="40" y="-720" width="200" height="20" as="geometry" />
        </mxCell>
        <mxCell id="_3rJmXygobrUnK-H9SfO-42" value="" style="ellipse;whiteSpace=wrap;html=1;aspect=fixed;fontSize=10;align=right;fillColor=#CCCCCC;strokeColor=#CCCCCC;" vertex="1" parent="1">
          <mxGeometry x="250" y="-715" width="10" height="10" as="geometry" />
        </mxCell>
        <mxCell id="_3rJmXygobrUnK-H9SfO-43" value="" style="endArrow=none;html=1;strokeColor=#CCCCCC;strokeWidth=2;" edge="1" parent="1">
          <mxGeometry width="50" height="50" relative="1" as="geometry">
            <mxPoint x="260" y="-690.5" as="sourcePoint" />
            <mxPoint x="1740.0000000000005" y="-690" as="targetPoint" />
          </mxGeometry>
        </mxCell>
        <mxCell id="_3rJmXygobrUnK-H9SfO-44" value="Nguyễn Văn A" style="text;html=1;strokeColor=none;fillColor=none;align=right;verticalAlign=middle;whiteSpace=wrap;rounded=0;fontSize=10;" vertex="1" parent="1">
          <mxGeometry x="40" y="-700" width="200" height="20" as="geometry" />
        </mxCell>
        <mxCell id="_3rJmXygobrUnK-H9SfO-45" value="" style="ellipse;whiteSpace=wrap;html=1;aspect=fixed;fontSize=10;align=right;fillColor=#CCCCCC;strokeColor=#CCCCCC;" vertex="1" parent="1">
          <mxGeometry x="250" y="-695" width="10" height="10" as="geometry" />
        </mxCell>
        <mxCell id="_3rJmXygobrUnK-H9SfO-46" value="" style="endArrow=none;html=1;strokeColor=#CCCCCC;strokeWidth=2;" edge="1" parent="1">
          <mxGeometry width="50" height="50" relative="1" as="geometry">
            <mxPoint x="260" y="-670.5" as="sourcePoint" />
            <mxPoint x="1740.0000000000005" y="-670" as="targetPoint" />
          </mxGeometry>
        </mxCell>
        <mxCell id="_3rJmXygobrUnK-H9SfO-47" value="Nguyễn Văn A" style="text;html=1;strokeColor=none;fillColor=none;align=right;verticalAlign=middle;whiteSpace=wrap;rounded=0;fontSize=10;" vertex="1" parent="1">
          <mxGeometry x="40" y="-680" width="200" height="20" as="geometry" />
        </mxCell>
        <mxCell id="_3rJmXygobrUnK-H9SfO-48" value="" style="ellipse;whiteSpace=wrap;html=1;aspect=fixed;fontSize=10;align=right;fillColor=#CCCCCC;strokeColor=#CCCCCC;" vertex="1" parent="1">
          <mxGeometry x="250" y="-675" width="10" height="10" as="geometry" />
        </mxCell>
        <mxCell id="_3rJmXygobrUnK-H9SfO-49" value="" style="endArrow=none;html=1;strokeColor=#000000;strokeWidth=2;" edge="1" parent="1">
          <mxGeometry width="50" height="50" relative="1" as="geometry">
            <mxPoint x="260" y="-650.5" as="sourcePoint" />
            <mxPoint x="1740.0000000000005" y="-650" as="targetPoint" />
          </mxGeometry>
        </mxCell>
        <mxCell id="_3rJmXygobrUnK-H9SfO-50" value="Nguyễn Văn A" style="text;html=1;strokeColor=none;fillColor=none;align=right;verticalAlign=middle;whiteSpace=wrap;rounded=0;fontSize=10;" vertex="1" parent="1">
          <mxGeometry x="40" y="-660" width="200" height="20" as="geometry" />
        </mxCell>
        <mxCell id="_3rJmXygobrUnK-H9SfO-51" value="" style="ellipse;whiteSpace=wrap;html=1;aspect=fixed;fontSize=10;align=right;fillColor=#000000;strokeColor=#000000;" vertex="1" parent="1">
          <mxGeometry x="250" y="-655" width="10" height="10" as="geometry" />
        </mxCell>
        <mxCell id="_3rJmXygobrUnK-H9SfO-52" value="" style="endArrow=none;html=1;strokeColor=#CCCCCC;strokeWidth=2;" edge="1" parent="1">
          <mxGeometry width="50" height="50" relative="1" as="geometry">
            <mxPoint x="260" y="-630.5" as="sourcePoint" />
            <mxPoint x="1740.0000000000005" y="-630" as="targetPoint" />
          </mxGeometry>
        </mxCell>
        <mxCell id="_3rJmXygobrUnK-H9SfO-53" value="Nguyễn Văn A" style="text;html=1;strokeColor=none;fillColor=none;align=right;verticalAlign=middle;whiteSpace=wrap;rounded=0;fontSize=10;" vertex="1" parent="1">
          <mxGeometry x="40" y="-640" width="200" height="20" as="geometry" />
        </mxCell>
        <mxCell id="_3rJmXygobrUnK-H9SfO-54" value="" style="ellipse;whiteSpace=wrap;html=1;aspect=fixed;fontSize=10;align=right;fillColor=#CCCCCC;strokeColor=#CCCCCC;" vertex="1" parent="1">
          <mxGeometry x="250" y="-635" width="10" height="10" as="geometry" />
        </mxCell>
        <mxCell id="_3rJmXygobrUnK-H9SfO-55" value="" style="endArrow=none;html=1;strokeColor=#CCCCCC;strokeWidth=2;" edge="1" parent="1">
          <mxGeometry width="50" height="50" relative="1" as="geometry">
            <mxPoint x="260" y="-610.5" as="sourcePoint" />
            <mxPoint x="1740.0000000000005" y="-610" as="targetPoint" />
          </mxGeometry>
        </mxCell>
        <mxCell id="_3rJmXygobrUnK-H9SfO-56" value="Nguyễn Văn A" style="text;html=1;strokeColor=none;fillColor=none;align=right;verticalAlign=middle;whiteSpace=wrap;rounded=0;fontSize=10;" vertex="1" parent="1">
          <mxGeometry x="40" y="-620" width="200" height="20" as="geometry" />
        </mxCell>
        <mxCell id="_3rJmXygobrUnK-H9SfO-57" value="" style="ellipse;whiteSpace=wrap;html=1;aspect=fixed;fontSize=10;align=right;fillColor=#CCCCCC;strokeColor=#CCCCCC;" vertex="1" parent="1">
          <mxGeometry x="250" y="-615" width="10" height="10" as="geometry" />
        </mxCell>
        <mxCell id="_3rJmXygobrUnK-H9SfO-58" value="" style="endArrow=none;html=1;strokeColor=#CCCCCC;strokeWidth=2;" edge="1" parent="1">
          <mxGeometry width="50" height="50" relative="1" as="geometry">
            <mxPoint x="260" y="-590.5" as="sourcePoint" />
            <mxPoint x="1740.0000000000005" y="-589.9999999999995" as="targetPoint" />
          </mxGeometry>
        </mxCell>
        <mxCell id="_3rJmXygobrUnK-H9SfO-59" value="Nguyễn Văn A" style="text;html=1;strokeColor=none;fillColor=none;align=right;verticalAlign=middle;whiteSpace=wrap;rounded=0;fontSize=10;" vertex="1" parent="1">
          <mxGeometry x="40" y="-600" width="200" height="20" as="geometry" />
        </mxCell>
        <mxCell id="_3rJmXygobrUnK-H9SfO-60" value="" style="ellipse;whiteSpace=wrap;html=1;aspect=fixed;fontSize=10;align=right;fillColor=#CCCCCC;strokeColor=#CCCCCC;" vertex="1" parent="1">
          <mxGeometry x="250" y="-595" width="10" height="10" as="geometry" />
        </mxCell>
        <mxCell id="_3rJmXygobrUnK-H9SfO-61" value="" style="endArrow=none;html=1;strokeColor=#CCCCCC;strokeWidth=2;" edge="1" parent="1">
          <mxGeometry width="50" height="50" relative="1" as="geometry">
            <mxPoint x="260" y="-570.5" as="sourcePoint" />
            <mxPoint x="1740.0000000000005" y="-569.9999999999995" as="targetPoint" />
          </mxGeometry>
        </mxCell>
        <mxCell id="_3rJmXygobrUnK-H9SfO-62" value="Nguyễn Văn A" style="text;html=1;strokeColor=none;fillColor=none;align=right;verticalAlign=middle;whiteSpace=wrap;rounded=0;fontSize=10;" vertex="1" parent="1">
          <mxGeometry x="40" y="-580" width="200" height="20" as="geometry" />
        </mxCell>
        <mxCell id="_3rJmXygobrUnK-H9SfO-63" value="" style="ellipse;whiteSpace=wrap;html=1;aspect=fixed;fontSize=10;align=right;fillColor=#CCCCCC;strokeColor=#CCCCCC;" vertex="1" parent="1">
          <mxGeometry x="250" y="-575" width="10" height="10" as="geometry" />
        </mxCell>
        <mxCell id="_3rJmXygobrUnK-H9SfO-64" value="" style="endArrow=none;html=1;strokeColor=#CCCCCC;strokeWidth=2;" edge="1" parent="1">
          <mxGeometry width="50" height="50" relative="1" as="geometry">
            <mxPoint x="260" y="-550.5" as="sourcePoint" />
            <mxPoint x="1740.0000000000005" y="-549.9999999999995" as="targetPoint" />
          </mxGeometry>
        </mxCell>
        <mxCell id="_3rJmXygobrUnK-H9SfO-65" value="Nguyễn Văn A" style="text;html=1;strokeColor=none;fillColor=none;align=right;verticalAlign=middle;whiteSpace=wrap;rounded=0;fontSize=10;" vertex="1" parent="1">
          <mxGeometry x="40" y="-560" width="200" height="20" as="geometry" />
        </mxCell>
        <mxCell id="_3rJmXygobrUnK-H9SfO-66" value="" style="ellipse;whiteSpace=wrap;html=1;aspect=fixed;fontSize=10;align=right;fillColor=#CCCCCC;strokeColor=#CCCCCC;" vertex="1" parent="1">
          <mxGeometry x="250" y="-555" width="10" height="10" as="geometry" />
        </mxCell>
        <mxCell id="_3rJmXygobrUnK-H9SfO-67" value="" style="endArrow=none;html=1;strokeColor=#CCCCCC;strokeWidth=2;" edge="1" parent="1">
          <mxGeometry width="50" height="50" relative="1" as="geometry">
            <mxPoint x="260" y="-530.5" as="sourcePoint" />
            <mxPoint x="1740.0000000000005" y="-529.9999999999995" as="targetPoint" />
          </mxGeometry>
        </mxCell>
        <mxCell id="_3rJmXygobrUnK-H9SfO-68" value="Nguyễn Văn A" style="text;html=1;strokeColor=none;fillColor=none;align=right;verticalAlign=middle;whiteSpace=wrap;rounded=0;fontSize=10;" vertex="1" parent="1">
          <mxGeometry x="40" y="-540" width="200" height="20" as="geometry" />
        </mxCell>
        <mxCell id="_3rJmXygobrUnK-H9SfO-69" value="" style="ellipse;whiteSpace=wrap;html=1;aspect=fixed;fontSize=10;align=right;fillColor=#CCCCCC;strokeColor=#CCCCCC;" vertex="1" parent="1">
          <mxGeometry x="250" y="-535" width="10" height="10" as="geometry" />
        </mxCell>
        <mxCell id="_3rJmXygobrUnK-H9SfO-70" value="" style="endArrow=none;html=1;strokeColor=#CCCCCC;strokeWidth=2;" edge="1" parent="1">
          <mxGeometry width="50" height="50" relative="1" as="geometry">
            <mxPoint x="260" y="-510.5" as="sourcePoint" />
            <mxPoint x="1740.0000000000005" y="-509.99999999999955" as="targetPoint" />
          </mxGeometry>
        </mxCell>
        <mxCell id="_3rJmXygobrUnK-H9SfO-71" value="Nguyễn Văn A" style="text;html=1;strokeColor=none;fillColor=none;align=right;verticalAlign=middle;whiteSpace=wrap;rounded=0;fontSize=10;" vertex="1" parent="1">
          <mxGeometry x="40" y="-520" width="200" height="20" as="geometry" />
        </mxCell>
        <mxCell id="_3rJmXygobrUnK-H9SfO-72" value="" style="ellipse;whiteSpace=wrap;html=1;aspect=fixed;fontSize=10;align=right;fillColor=#CCCCCC;strokeColor=#CCCCCC;" vertex="1" parent="1">
          <mxGeometry x="250" y="-515" width="10" height="10" as="geometry" />
        </mxCell>
        <mxCell id="_3rJmXygobrUnK-H9SfO-73" value="" style="endArrow=none;html=1;strokeColor=#CCCCCC;strokeWidth=2;" edge="1" parent="1">
          <mxGeometry width="50" height="50" relative="1" as="geometry">
            <mxPoint x="260" y="-490.5" as="sourcePoint" />
            <mxPoint x="1740.0000000000005" y="-489.99999999999955" as="targetPoint" />
          </mxGeometry>
        </mxCell>
        <mxCell id="_3rJmXygobrUnK-H9SfO-74" value="Nguyễn Văn A" style="text;html=1;strokeColor=none;fillColor=none;align=right;verticalAlign=middle;whiteSpace=wrap;rounded=0;fontSize=10;" vertex="1" parent="1">
          <mxGeometry x="40" y="-500" width="200" height="20" as="geometry" />
        </mxCell>
        <mxCell id="_3rJmXygobrUnK-H9SfO-75" value="" style="ellipse;whiteSpace=wrap;html=1;aspect=fixed;fontSize=10;align=right;fillColor=#CCCCCC;strokeColor=#CCCCCC;" vertex="1" parent="1">
          <mxGeometry x="250" y="-495" width="10" height="10" as="geometry" />
        </mxCell>
        <mxCell id="_3rJmXygobrUnK-H9SfO-76" value="" style="endArrow=none;html=1;strokeColor=#CCCCCC;strokeWidth=2;" edge="1" parent="1">
          <mxGeometry width="50" height="50" relative="1" as="geometry">
            <mxPoint x="260" y="-470.5" as="sourcePoint" />
            <mxPoint x="1740.0000000000005" y="-469.99999999999955" as="targetPoint" />
          </mxGeometry>
        </mxCell>
        <mxCell id="_3rJmXygobrUnK-H9SfO-77" value="Nguyễn Văn A" style="text;html=1;strokeColor=none;fillColor=none;align=right;verticalAlign=middle;whiteSpace=wrap;rounded=0;fontSize=10;" vertex="1" parent="1">
          <mxGeometry x="40" y="-480" width="200" height="20" as="geometry" />
        </mxCell>
        <mxCell id="_3rJmXygobrUnK-H9SfO-78" value="" style="ellipse;whiteSpace=wrap;html=1;aspect=fixed;fontSize=10;align=right;fillColor=#CCCCCC;strokeColor=#CCCCCC;" vertex="1" parent="1">
          <mxGeometry x="250" y="-475" width="10" height="10" as="geometry" />
        </mxCell>
        <mxCell id="_3rJmXygobrUnK-H9SfO-79" value="" style="endArrow=none;html=1;strokeColor=#CCCCCC;strokeWidth=2;" edge="1" parent="1">
          <mxGeometry width="50" height="50" relative="1" as="geometry">
            <mxPoint x="260" y="-450.5" as="sourcePoint" />
            <mxPoint x="1740.0000000000005" y="-450.00000000000045" as="targetPoint" />
          </mxGeometry>
        </mxCell>
        <mxCell id="_3rJmXygobrUnK-H9SfO-80" value="Nguyễn Văn A" style="text;html=1;strokeColor=none;fillColor=none;align=right;verticalAlign=middle;whiteSpace=wrap;rounded=0;fontSize=10;" vertex="1" parent="1">
          <mxGeometry x="40" y="-460" width="200" height="20" as="geometry" />
        </mxCell>
        <mxCell id="_3rJmXygobrUnK-H9SfO-81" value="" style="ellipse;whiteSpace=wrap;html=1;aspect=fixed;fontSize=10;align=right;fillColor=#CCCCCC;strokeColor=#CCCCCC;" vertex="1" parent="1">
          <mxGeometry x="250" y="-455" width="10" height="10" as="geometry" />
        </mxCell>
        <mxCell id="_3rJmXygobrUnK-H9SfO-82" value="" style="endArrow=none;html=1;strokeColor=#CCCCCC;strokeWidth=2;" edge="1" parent="1">
          <mxGeometry width="50" height="50" relative="1" as="geometry">
            <mxPoint x="260" y="-430.5" as="sourcePoint" />
            <mxPoint x="1740.0000000000005" y="-430.00000000000045" as="targetPoint" />
          </mxGeometry>
        </mxCell>
        <mxCell id="_3rJmXygobrUnK-H9SfO-83" value="Nguyễn Văn A" style="text;html=1;strokeColor=none;fillColor=none;align=right;verticalAlign=middle;whiteSpace=wrap;rounded=0;fontSize=10;" vertex="1" parent="1">
          <mxGeometry x="40" y="-440" width="200" height="20" as="geometry" />
        </mxCell>
        <mxCell id="_3rJmXygobrUnK-H9SfO-84" value="" style="ellipse;whiteSpace=wrap;html=1;aspect=fixed;fontSize=10;align=right;fillColor=#CCCCCC;strokeColor=#CCCCCC;" vertex="1" parent="1">
          <mxGeometry x="250" y="-435" width="10" height="10" as="geometry" />
        </mxCell>
        <mxCell id="_3rJmXygobrUnK-H9SfO-85" value="" style="endArrow=none;html=1;strokeColor=#CCCCCC;strokeWidth=2;" edge="1" parent="1">
          <mxGeometry width="50" height="50" relative="1" as="geometry">
            <mxPoint x="260" y="-410.5" as="sourcePoint" />
            <mxPoint x="1740.0000000000005" y="-410.00000000000045" as="targetPoint" />
          </mxGeometry>
        </mxCell>
        <mxCell id="_3rJmXygobrUnK-H9SfO-86" value="Nguyễn Văn A" style="text;html=1;strokeColor=none;fillColor=none;align=right;verticalAlign=middle;whiteSpace=wrap;rounded=0;fontSize=10;" vertex="1" parent="1">
          <mxGeometry x="40" y="-420" width="200" height="20" as="geometry" />
        </mxCell>
        <mxCell id="_3rJmXygobrUnK-H9SfO-87" value="" style="ellipse;whiteSpace=wrap;html=1;aspect=fixed;fontSize=10;align=right;fillColor=#CCCCCC;strokeColor=#CCCCCC;" vertex="1" parent="1">
          <mxGeometry x="250" y="-415" width="10" height="10" as="geometry" />
        </mxCell>
        <mxCell id="_3rJmXygobrUnK-H9SfO-88" value="" style="endArrow=none;html=1;strokeColor=#CCCCCC;strokeWidth=2;" edge="1" parent="1">
          <mxGeometry width="50" height="50" relative="1" as="geometry">
            <mxPoint x="260" y="-390.5" as="sourcePoint" />
            <mxPoint x="1740.0000000000005" y="-390.00000000000045" as="targetPoint" />
          </mxGeometry>
        </mxCell>
        <mxCell id="_3rJmXygobrUnK-H9SfO-89" value="Nguyễn Văn A" style="text;html=1;strokeColor=none;fillColor=none;align=right;verticalAlign=middle;whiteSpace=wrap;rounded=0;fontSize=10;" vertex="1" parent="1">
          <mxGeometry x="40" y="-400" width="200" height="20" as="geometry" />
        </mxCell>
        <mxCell id="_3rJmXygobrUnK-H9SfO-90" value="" style="ellipse;whiteSpace=wrap;html=1;aspect=fixed;fontSize=10;align=right;fillColor=#CCCCCC;strokeColor=#CCCCCC;" vertex="1" parent="1">
          <mxGeometry x="250" y="-395" width="10" height="10" as="geometry" />
        </mxCell>
        <mxCell id="_3rJmXygobrUnK-H9SfO-91" value="" style="endArrow=none;html=1;strokeColor=#CCCCCC;strokeWidth=2;" edge="1" parent="1">
          <mxGeometry width="50" height="50" relative="1" as="geometry">
            <mxPoint x="260" y="-370.5" as="sourcePoint" />
            <mxPoint x="1740.0000000000005" y="-370.00000000000045" as="targetPoint" />
          </mxGeometry>
        </mxCell>
        <mxCell id="_3rJmXygobrUnK-H9SfO-92" value="Nguyễn Văn A" style="text;html=1;strokeColor=none;fillColor=none;align=right;verticalAlign=middle;whiteSpace=wrap;rounded=0;fontSize=10;" vertex="1" parent="1">
          <mxGeometry x="40" y="-380" width="200" height="20" as="geometry" />
        </mxCell>
        <mxCell id="_3rJmXygobrUnK-H9SfO-93" value="" style="ellipse;whiteSpace=wrap;html=1;aspect=fixed;fontSize=10;align=right;fillColor=#CCCCCC;strokeColor=#CCCCCC;" vertex="1" parent="1">
          <mxGeometry x="250" y="-375" width="10" height="10" as="geometry" />
        </mxCell>
        <mxCell id="_3rJmXygobrUnK-H9SfO-94" value="" style="endArrow=none;html=1;strokeColor=#CCCCCC;strokeWidth=2;" edge="1" parent="1">
          <mxGeometry width="50" height="50" relative="1" as="geometry">
            <mxPoint x="260" y="-350.5" as="sourcePoint" />
            <mxPoint x="1740.0000000000005" y="-350.00000000000045" as="targetPoint" />
          </mxGeometry>
        </mxCell>
        <mxCell id="_3rJmXygobrUnK-H9SfO-95" value="Nguyễn Văn A" style="text;html=1;strokeColor=none;fillColor=none;align=right;verticalAlign=middle;whiteSpace=wrap;rounded=0;fontSize=10;" vertex="1" parent="1">
          <mxGeometry x="40" y="-360" width="200" height="20" as="geometry" />
        </mxCell>
        <mxCell id="_3rJmXygobrUnK-H9SfO-96" value="" style="ellipse;whiteSpace=wrap;html=1;aspect=fixed;fontSize=10;align=right;fillColor=#CCCCCC;strokeColor=#CCCCCC;" vertex="1" parent="1">
          <mxGeometry x="250" y="-355" width="10" height="10" as="geometry" />
        </mxCell>
        <mxCell id="_3rJmXygobrUnK-H9SfO-97" value="" style="endArrow=none;html=1;strokeColor=#CCCCCC;strokeWidth=2;" edge="1" parent="1">
          <mxGeometry width="50" height="50" relative="1" as="geometry">
            <mxPoint x="260" y="-330.5" as="sourcePoint" />
            <mxPoint x="1740.0000000000005" y="-330.00000000000045" as="targetPoint" />
          </mxGeometry>
        </mxCell>
        <mxCell id="_3rJmXygobrUnK-H9SfO-98" value="Nguyễn Văn A" style="text;html=1;strokeColor=none;fillColor=none;align=right;verticalAlign=middle;whiteSpace=wrap;rounded=0;fontSize=10;" vertex="1" parent="1">
          <mxGeometry x="40" y="-340" width="200" height="20" as="geometry" />
        </mxCell>
        <mxCell id="_3rJmXygobrUnK-H9SfO-99" value="" style="ellipse;whiteSpace=wrap;html=1;aspect=fixed;fontSize=10;align=right;fillColor=#CCCCCC;strokeColor=#CCCCCC;" vertex="1" parent="1">
          <mxGeometry x="250" y="-335" width="10" height="10" as="geometry" />
        </mxCell>
        <mxCell id="_3rJmXygobrUnK-H9SfO-100" value="" style="endArrow=none;html=1;strokeColor=#CCCCCC;strokeWidth=2;" edge="1" parent="1">
          <mxGeometry width="50" height="50" relative="1" as="geometry">
            <mxPoint x="260" y="-310.5" as="sourcePoint" />
            <mxPoint x="1740.0000000000005" y="-310.00000000000045" as="targetPoint" />
          </mxGeometry>
        </mxCell>
        <mxCell id="_3rJmXygobrUnK-H9SfO-101" value="Nguyễn Văn A" style="text;html=1;strokeColor=none;fillColor=none;align=right;verticalAlign=middle;whiteSpace=wrap;rounded=0;fontSize=10;" vertex="1" parent="1">
          <mxGeometry x="40" y="-320" width="200" height="20" as="geometry" />
        </mxCell>
        <mxCell id="_3rJmXygobrUnK-H9SfO-102" value="" style="ellipse;whiteSpace=wrap;html=1;aspect=fixed;fontSize=10;align=right;fillColor=#CCCCCC;strokeColor=#CCCCCC;" vertex="1" parent="1">
          <mxGeometry x="250" y="-315" width="10" height="10" as="geometry" />
        </mxCell>
        <mxCell id="_3rJmXygobrUnK-H9SfO-103" value="" style="endArrow=none;html=1;strokeColor=#CCCCCC;strokeWidth=2;" edge="1" parent="1">
          <mxGeometry width="50" height="50" relative="1" as="geometry">
            <mxPoint x="260" y="-290.5" as="sourcePoint" />
            <mxPoint x="1740.0000000000005" y="-290.00000000000045" as="targetPoint" />
          </mxGeometry>
        </mxCell>
        <mxCell id="_3rJmXygobrUnK-H9SfO-104" value="Nguyễn Văn A" style="text;html=1;strokeColor=none;fillColor=none;align=right;verticalAlign=middle;whiteSpace=wrap;rounded=0;fontSize=10;" vertex="1" parent="1">
          <mxGeometry x="40" y="-300" width="200" height="20" as="geometry" />
        </mxCell>
        <mxCell id="_3rJmXygobrUnK-H9SfO-105" value="" style="ellipse;whiteSpace=wrap;html=1;aspect=fixed;fontSize=10;align=right;fillColor=#CCCCCC;strokeColor=#CCCCCC;" vertex="1" parent="1">
          <mxGeometry x="250" y="-295" width="10" height="10" as="geometry" />
        </mxCell>
        <mxCell id="_3rJmXygobrUnK-H9SfO-106" value="" style="endArrow=none;html=1;strokeColor=#CCCCCC;strokeWidth=2;" edge="1" parent="1">
          <mxGeometry width="50" height="50" relative="1" as="geometry">
            <mxPoint x="260" y="-270.5" as="sourcePoint" />
            <mxPoint x="1740.0000000000005" y="-270.00000000000045" as="targetPoint" />
          </mxGeometry>
        </mxCell>
        <mxCell id="_3rJmXygobrUnK-H9SfO-107" value="Nguyễn Văn A" style="text;html=1;strokeColor=none;fillColor=none;align=right;verticalAlign=middle;whiteSpace=wrap;rounded=0;fontSize=10;" vertex="1" parent="1">
          <mxGeometry x="40" y="-280" width="200" height="20" as="geometry" />
        </mxCell>
        <mxCell id="_3rJmXygobrUnK-H9SfO-108" value="" style="ellipse;whiteSpace=wrap;html=1;aspect=fixed;fontSize=10;align=right;fillColor=#CCCCCC;strokeColor=#CCCCCC;" vertex="1" parent="1">
          <mxGeometry x="250" y="-275" width="10" height="10" as="geometry" />
        </mxCell>
        <mxCell id="_3rJmXygobrUnK-H9SfO-109" value="" style="endArrow=none;html=1;strokeColor=#CCCCCC;strokeWidth=2;" edge="1" parent="1">
          <mxGeometry width="50" height="50" relative="1" as="geometry">
            <mxPoint x="260" y="-250.5" as="sourcePoint" />
            <mxPoint x="1740.0000000000005" y="-250.00000000000045" as="targetPoint" />
          </mxGeometry>
        </mxCell>
        <mxCell id="_3rJmXygobrUnK-H9SfO-110" value="Nguyễn Văn A" style="text;html=1;strokeColor=none;fillColor=none;align=right;verticalAlign=middle;whiteSpace=wrap;rounded=0;fontSize=10;" vertex="1" parent="1">
          <mxGeometry x="40" y="-260" width="200" height="20" as="geometry" />
        </mxCell>
        <mxCell id="_3rJmXygobrUnK-H9SfO-111" value="" style="ellipse;whiteSpace=wrap;html=1;aspect=fixed;fontSize=10;align=right;fillColor=#CCCCCC;strokeColor=#CCCCCC;" vertex="1" parent="1">
          <mxGeometry x="250" y="-255" width="10" height="10" as="geometry" />
        </mxCell>
        <mxCell id="_3rJmXygobrUnK-H9SfO-112" value="" style="endArrow=none;html=1;strokeColor=#CCCCCC;strokeWidth=2;" edge="1" parent="1">
          <mxGeometry width="50" height="50" relative="1" as="geometry">
            <mxPoint x="260" y="-230.5" as="sourcePoint" />
            <mxPoint x="1740.0000000000005" y="-230.00000000000045" as="targetPoint" />
          </mxGeometry>
        </mxCell>
        <mxCell id="_3rJmXygobrUnK-H9SfO-113" value="Nguyễn Văn A" style="text;html=1;strokeColor=none;fillColor=none;align=right;verticalAlign=middle;whiteSpace=wrap;rounded=0;fontSize=10;" vertex="1" parent="1">
          <mxGeometry x="40" y="-240" width="200" height="20" as="geometry" />
        </mxCell>
        <mxCell id="_3rJmXygobrUnK-H9SfO-114" value="" style="ellipse;whiteSpace=wrap;html=1;aspect=fixed;fontSize=10;align=right;fillColor=#CCCCCC;strokeColor=#CCCCCC;" vertex="1" parent="1">
          <mxGeometry x="250" y="-235" width="10" height="10" as="geometry" />
        </mxCell>
        <mxCell id="_3rJmXygobrUnK-H9SfO-115" value="" style="endArrow=none;html=1;strokeColor=#CCCCCC;strokeWidth=2;" edge="1" parent="1">
          <mxGeometry width="50" height="50" relative="1" as="geometry">
            <mxPoint x="260" y="-210.5" as="sourcePoint" />
            <mxPoint x="1740.0000000000005" y="-210.00000000000045" as="targetPoint" />
          </mxGeometry>
        </mxCell>
        <mxCell id="_3rJmXygobrUnK-H9SfO-116" value="Nguyễn Văn A" style="text;html=1;strokeColor=none;fillColor=none;align=right;verticalAlign=middle;whiteSpace=wrap;rounded=0;fontSize=10;" vertex="1" parent="1">
          <mxGeometry x="40" y="-220" width="200" height="20" as="geometry" />
        </mxCell>
        <mxCell id="_3rJmXygobrUnK-H9SfO-117" value="" style="ellipse;whiteSpace=wrap;html=1;aspect=fixed;fontSize=10;align=right;fillColor=#CCCCCC;strokeColor=#CCCCCC;" vertex="1" parent="1">
          <mxGeometry x="250" y="-215" width="10" height="10" as="geometry" />
        </mxCell>
        <mxCell id="_3rJmXygobrUnK-H9SfO-118" value="" style="endArrow=none;html=1;strokeColor=#CCCCCC;strokeWidth=2;" edge="1" parent="1">
          <mxGeometry width="50" height="50" relative="1" as="geometry">
            <mxPoint x="260" y="-190.5" as="sourcePoint" />
            <mxPoint x="1740.0000000000005" y="-190.00000000000045" as="targetPoint" />
          </mxGeometry>
        </mxCell>
        <mxCell id="_3rJmXygobrUnK-H9SfO-119" value="Nguyễn Văn A" style="text;html=1;strokeColor=none;fillColor=none;align=right;verticalAlign=middle;whiteSpace=wrap;rounded=0;fontSize=10;" vertex="1" parent="1">
          <mxGeometry x="40" y="-200" width="200" height="20" as="geometry" />
        </mxCell>
        <mxCell id="_3rJmXygobrUnK-H9SfO-120" value="" style="ellipse;whiteSpace=wrap;html=1;aspect=fixed;fontSize=10;align=right;fillColor=#CCCCCC;strokeColor=#CCCCCC;" vertex="1" parent="1">
          <mxGeometry x="250" y="-195" width="10" height="10" as="geometry" />
        </mxCell>
        <mxCell id="_3rJmXygobrUnK-H9SfO-121" value="" style="endArrow=none;html=1;strokeColor=#CCCCCC;strokeWidth=2;" edge="1" parent="1">
          <mxGeometry width="50" height="50" relative="1" as="geometry">
            <mxPoint x="260" y="-170.5" as="sourcePoint" />
            <mxPoint x="1740.0000000000005" y="-170.00000000000045" as="targetPoint" />
          </mxGeometry>
        </mxCell>
        <mxCell id="_3rJmXygobrUnK-H9SfO-122" value="Nguyễn Văn A" style="text;html=1;strokeColor=none;fillColor=none;align=right;verticalAlign=middle;whiteSpace=wrap;rounded=0;fontSize=10;" vertex="1" parent="1">
          <mxGeometry x="40" y="-180" width="200" height="20" as="geometry" />
        </mxCell>
        <mxCell id="_3rJmXygobrUnK-H9SfO-123" value="" style="ellipse;whiteSpace=wrap;html=1;aspect=fixed;fontSize=10;align=right;fillColor=#CCCCCC;strokeColor=#CCCCCC;" vertex="1" parent="1">
          <mxGeometry x="250" y="-175" width="10" height="10" as="geometry" />
        </mxCell>
        <mxCell id="_3rJmXygobrUnK-H9SfO-124" value="" style="endArrow=none;html=1;strokeColor=#CCCCCC;strokeWidth=2;" edge="1" parent="1">
          <mxGeometry width="50" height="50" relative="1" as="geometry">
            <mxPoint x="260" y="-150.5" as="sourcePoint" />
            <mxPoint x="1740.0000000000005" y="-150.00000000000045" as="targetPoint" />
          </mxGeometry>
        </mxCell>
        <mxCell id="_3rJmXygobrUnK-H9SfO-125" value="Nguyễn Văn A" style="text;html=1;strokeColor=none;fillColor=none;align=right;verticalAlign=middle;whiteSpace=wrap;rounded=0;fontSize=10;" vertex="1" parent="1">
          <mxGeometry x="40" y="-160" width="200" height="20" as="geometry" />
        </mxCell>
        <mxCell id="_3rJmXygobrUnK-H9SfO-126" value="" style="ellipse;whiteSpace=wrap;html=1;aspect=fixed;fontSize=10;align=right;fillColor=#CCCCCC;strokeColor=#CCCCCC;" vertex="1" parent="1">
          <mxGeometry x="250" y="-155" width="10" height="10" as="geometry" />
        </mxCell>
        <mxCell id="_3rJmXygobrUnK-H9SfO-127" value="" style="endArrow=none;html=1;strokeColor=#CCCCCC;strokeWidth=2;" edge="1" parent="1">
          <mxGeometry width="50" height="50" relative="1" as="geometry">
            <mxPoint x="260" y="-130.5" as="sourcePoint" />
            <mxPoint x="1740.0000000000005" y="-130.00000000000045" as="targetPoint" />
          </mxGeometry>
        </mxCell>
        <mxCell id="_3rJmXygobrUnK-H9SfO-128" value="Nguyễn Văn A" style="text;html=1;strokeColor=none;fillColor=none;align=right;verticalAlign=middle;whiteSpace=wrap;rounded=0;fontSize=10;" vertex="1" parent="1">
          <mxGeometry x="40" y="-140" width="200" height="20" as="geometry" />
        </mxCell>
        <mxCell id="_3rJmXygobrUnK-H9SfO-129" value="" style="ellipse;whiteSpace=wrap;html=1;aspect=fixed;fontSize=10;align=right;fillColor=#CCCCCC;strokeColor=#CCCCCC;" vertex="1" parent="1">
          <mxGeometry x="250" y="-135" width="10" height="10" as="geometry" />
        </mxCell>
        <mxCell id="_3rJmXygobrUnK-H9SfO-130" value="" style="endArrow=none;html=1;strokeColor=#CCCCCC;strokeWidth=2;" edge="1" parent="1">
          <mxGeometry width="50" height="50" relative="1" as="geometry">
            <mxPoint x="260" y="-110.5" as="sourcePoint" />
            <mxPoint x="1740.0000000000005" y="-110.00000000000045" as="targetPoint" />
          </mxGeometry>
        </mxCell>
        <mxCell id="_3rJmXygobrUnK-H9SfO-131" value="Nguyễn Văn A" style="text;html=1;strokeColor=none;fillColor=none;align=right;verticalAlign=middle;whiteSpace=wrap;rounded=0;fontSize=10;" vertex="1" parent="1">
          <mxGeometry x="40" y="-120" width="200" height="20" as="geometry" />
        </mxCell>
        <mxCell id="_3rJmXygobrUnK-H9SfO-132" value="" style="ellipse;whiteSpace=wrap;html=1;aspect=fixed;fontSize=10;align=right;fillColor=#CCCCCC;strokeColor=#CCCCCC;" vertex="1" parent="1">
          <mxGeometry x="250" y="-115" width="10" height="10" as="geometry" />
        </mxCell>
        <mxCell id="_3rJmXygobrUnK-H9SfO-133" value="" style="endArrow=none;html=1;strokeColor=#CCCCCC;strokeWidth=2;" edge="1" parent="1">
          <mxGeometry width="50" height="50" relative="1" as="geometry">
            <mxPoint x="260" y="-90.5" as="sourcePoint" />
            <mxPoint x="1740.0000000000005" y="-90.00000000000045" as="targetPoint" />
          </mxGeometry>
        </mxCell>
        <mxCell id="_3rJmXygobrUnK-H9SfO-134" value="Nguyễn Văn A" style="text;html=1;strokeColor=none;fillColor=none;align=right;verticalAlign=middle;whiteSpace=wrap;rounded=0;fontSize=10;" vertex="1" parent="1">
          <mxGeometry x="40" y="-100" width="200" height="20" as="geometry" />
        </mxCell>
        <mxCell id="_3rJmXygobrUnK-H9SfO-135" value="" style="ellipse;whiteSpace=wrap;html=1;aspect=fixed;fontSize=10;align=right;fillColor=#CCCCCC;strokeColor=#CCCCCC;" vertex="1" parent="1">
          <mxGeometry x="250" y="-95" width="10" height="10" as="geometry" />
        </mxCell>
        <mxCell id="_3rJmXygobrUnK-H9SfO-136" value="" style="endArrow=none;html=1;fontSize=10;" edge="1" parent="1">
          <mxGeometry width="50" height="50" relative="1" as="geometry">
            <mxPoint x="1700.0000000000005" y="-920" as="sourcePoint" />
            <mxPoint x="1700.0000000000005" y="-790" as="targetPoint" />
          </mxGeometry>
        </mxCell>
        <mxCell id="_3rJmXygobrUnK-H9SfO-137" value="" style="endArrow=none;html=1;fontSize=10;strokeColor=#E6E6E6;" edge="1" parent="1">
          <mxGeometry width="50" height="50" relative="1" as="geometry">
            <mxPoint x="459" y="-40.000000000000455" as="sourcePoint" />
            <mxPoint x="459" y="-790" as="targetPoint" />
          </mxGeometry>
        </mxCell>
        <mxCell id="_3rJmXygobrUnK-H9SfO-138" value="" style="endArrow=none;html=1;fontSize=10;strokeColor=#E6E6E6;" edge="1" parent="1">
          <mxGeometry width="50" height="50" relative="1" as="geometry">
            <mxPoint x="540" y="-40.000000000000455" as="sourcePoint" />
            <mxPoint x="539.5" y="-790" as="targetPoint" />
          </mxGeometry>
        </mxCell>
        <mxCell id="_3rJmXygobrUnK-H9SfO-139" value="" style="endArrow=none;html=1;fontSize=10;strokeColor=#E6E6E6;" edge="1" parent="1">
          <mxGeometry width="50" height="50" relative="1" as="geometry">
            <mxPoint x="500" y="-40.000000000000455" as="sourcePoint" />
            <mxPoint x="499.5" y="-790" as="targetPoint" />
          </mxGeometry>
        </mxCell>
        <mxCell id="_3rJmXygobrUnK-H9SfO-140" value="" style="endArrow=none;html=1;fontSize=10;strokeColor=#E6E6E6;" edge="1" parent="1">
          <mxGeometry width="50" height="50" relative="1" as="geometry">
            <mxPoint x="580.5" y="-40.000000000000455" as="sourcePoint" />
            <mxPoint x="580" y="-790" as="targetPoint" />
          </mxGeometry>
        </mxCell>
        <mxCell id="_3rJmXygobrUnK-H9SfO-141" value="" style="endArrow=none;html=1;fontSize=10;strokeColor=#E6E6E6;" edge="1" parent="1">
          <mxGeometry width="50" height="50" relative="1" as="geometry">
            <mxPoint x="660.5" y="-40.000000000000455" as="sourcePoint" />
            <mxPoint x="660.5" y="-790" as="targetPoint" />
          </mxGeometry>
        </mxCell>
        <mxCell id="_3rJmXygobrUnK-H9SfO-142" value="" style="endArrow=none;html=1;fontSize=10;strokeColor=#E6E6E6;" edge="1" parent="1">
          <mxGeometry width="50" height="50" relative="1" as="geometry">
            <mxPoint x="620.5" y="-40.000000000000455" as="sourcePoint" />
            <mxPoint x="620.5" y="-790" as="targetPoint" />
          </mxGeometry>
        </mxCell>
        <mxCell id="_3rJmXygobrUnK-H9SfO-143" value="" style="endArrow=none;html=1;fontSize=10;strokeColor=#E6E6E6;" edge="1" parent="1">
          <mxGeometry width="50" height="50" relative="1" as="geometry">
            <mxPoint x="699.5" y="-40.000000000000455" as="sourcePoint" />
            <mxPoint x="699.5" y="-790" as="targetPoint" />
          </mxGeometry>
        </mxCell>
        <mxCell id="_3rJmXygobrUnK-H9SfO-144" value="" style="endArrow=none;html=1;fontSize=10;strokeColor=#E6E6E6;" edge="1" parent="1">
          <mxGeometry width="50" height="50" relative="1" as="geometry">
            <mxPoint x="780.5" y="-40.000000000000455" as="sourcePoint" />
            <mxPoint x="780" y="-790" as="targetPoint" />
          </mxGeometry>
        </mxCell>
        <mxCell id="_3rJmXygobrUnK-H9SfO-145" value="" style="endArrow=none;html=1;fontSize=10;strokeColor=#E6E6E6;" edge="1" parent="1">
          <mxGeometry width="50" height="50" relative="1" as="geometry">
            <mxPoint x="740.5" y="-40.000000000000455" as="sourcePoint" />
            <mxPoint x="740" y="-790" as="targetPoint" />
          </mxGeometry>
        </mxCell>
        <mxCell id="_3rJmXygobrUnK-H9SfO-146" value="" style="endArrow=none;html=1;fontSize=10;strokeColor=#E6E6E6;" edge="1" parent="1">
          <mxGeometry width="50" height="50" relative="1" as="geometry">
            <mxPoint x="820.5" y="-40.000000000000455" as="sourcePoint" />
            <mxPoint x="820" y="-790" as="targetPoint" />
          </mxGeometry>
        </mxCell>
        <mxCell id="_3rJmXygobrUnK-H9SfO-147" value="" style="endArrow=none;html=1;fontSize=10;strokeColor=#E6E6E6;" edge="1" parent="1">
          <mxGeometry width="50" height="50" relative="1" as="geometry">
            <mxPoint x="900.5" y="-40.000000000000455" as="sourcePoint" />
            <mxPoint x="900.5" y="-790" as="targetPoint" />
          </mxGeometry>
        </mxCell>
        <mxCell id="_3rJmXygobrUnK-H9SfO-148" value="" style="endArrow=none;html=1;fontSize=10;strokeColor=#E6E6E6;" edge="1" parent="1">
          <mxGeometry width="50" height="50" relative="1" as="geometry">
            <mxPoint x="860.5" y="-40.000000000000455" as="sourcePoint" />
            <mxPoint x="860.5" y="-790" as="targetPoint" />
          </mxGeometry>
        </mxCell>
        <mxCell id="_3rJmXygobrUnK-H9SfO-149" value="" style="endArrow=none;html=1;fontSize=10;strokeColor=#E6E6E6;" edge="1" parent="1">
          <mxGeometry width="50" height="50" relative="1" as="geometry">
            <mxPoint x="939.5000000000005" y="-40.000000000000455" as="sourcePoint" />
            <mxPoint x="939.5000000000005" y="-790" as="targetPoint" />
          </mxGeometry>
        </mxCell>
        <mxCell id="_3rJmXygobrUnK-H9SfO-150" value="" style="endArrow=none;html=1;fontSize=10;strokeColor=#E6E6E6;" edge="1" parent="1">
          <mxGeometry width="50" height="50" relative="1" as="geometry">
            <mxPoint x="1020.5" y="-40.000000000000455" as="sourcePoint" />
            <mxPoint x="1020" y="-790" as="targetPoint" />
          </mxGeometry>
        </mxCell>
        <mxCell id="_3rJmXygobrUnK-H9SfO-151" value="" style="endArrow=none;html=1;fontSize=10;strokeColor=#E6E6E6;" edge="1" parent="1">
          <mxGeometry width="50" height="50" relative="1" as="geometry">
            <mxPoint x="980.5" y="-40.000000000000455" as="sourcePoint" />
            <mxPoint x="980" y="-790" as="targetPoint" />
          </mxGeometry>
        </mxCell>
        <mxCell id="_3rJmXygobrUnK-H9SfO-152" value="" style="endArrow=none;html=1;fontSize=10;strokeColor=#E6E6E6;" edge="1" parent="1">
          <mxGeometry width="50" height="50" relative="1" as="geometry">
            <mxPoint x="1061" y="-40.000000000000455" as="sourcePoint" />
            <mxPoint x="1060.5" y="-790" as="targetPoint" />
          </mxGeometry>
        </mxCell>
        <mxCell id="_3rJmXygobrUnK-H9SfO-153" value="" style="endArrow=none;html=1;fontSize=10;strokeColor=#E6E6E6;" edge="1" parent="1">
          <mxGeometry width="50" height="50" relative="1" as="geometry">
            <mxPoint x="1141" y="-40.000000000000455" as="sourcePoint" />
            <mxPoint x="1141" y="-790" as="targetPoint" />
          </mxGeometry>
        </mxCell>
        <mxCell id="_3rJmXygobrUnK-H9SfO-154" value="" style="endArrow=none;html=1;fontSize=10;strokeColor=#E6E6E6;" edge="1" parent="1">
          <mxGeometry width="50" height="50" relative="1" as="geometry">
            <mxPoint x="1101" y="-40.000000000000455" as="sourcePoint" />
            <mxPoint x="1101" y="-790" as="targetPoint" />
          </mxGeometry>
        </mxCell>
        <mxCell id="_3rJmXygobrUnK-H9SfO-155" value="" style="endArrow=none;html=1;fontSize=10;strokeColor=#E6E6E6;" edge="1" parent="1">
          <mxGeometry width="50" height="50" relative="1" as="geometry">
            <mxPoint x="1180" y="-40.000000000000455" as="sourcePoint" />
            <mxPoint x="1180" y="-790" as="targetPoint" />
          </mxGeometry>
        </mxCell>
        <mxCell id="_3rJmXygobrUnK-H9SfO-156" value="" style="endArrow=none;html=1;fontSize=10;strokeColor=#E6E6E6;" edge="1" parent="1">
          <mxGeometry width="50" height="50" relative="1" as="geometry">
            <mxPoint x="1261" y="-40.000000000000455" as="sourcePoint" />
            <mxPoint x="1260.5" y="-790" as="targetPoint" />
          </mxGeometry>
        </mxCell>
        <mxCell id="_3rJmXygobrUnK-H9SfO-157" value="" style="endArrow=none;html=1;fontSize=10;strokeColor=#E6E6E6;" edge="1" parent="1">
          <mxGeometry width="50" height="50" relative="1" as="geometry">
            <mxPoint x="1221" y="-40.000000000000455" as="sourcePoint" />
            <mxPoint x="1220.5" y="-790" as="targetPoint" />
          </mxGeometry>
        </mxCell>
        <mxCell id="_3rJmXygobrUnK-H9SfO-158" value="" style="endArrow=none;html=1;fontSize=10;strokeColor=#E6E6E6;" edge="1" parent="1">
          <mxGeometry width="50" height="50" relative="1" as="geometry">
            <mxPoint x="1300.5" y="-40.000000000000455" as="sourcePoint" />
            <mxPoint x="1300" y="-790" as="targetPoint" />
          </mxGeometry>
        </mxCell>
        <mxCell id="_3rJmXygobrUnK-H9SfO-159" value="" style="endArrow=none;html=1;fontSize=10;strokeColor=#E6E6E6;" edge="1" parent="1">
          <mxGeometry width="50" height="50" relative="1" as="geometry">
            <mxPoint x="1380.5" y="-40.000000000000455" as="sourcePoint" />
            <mxPoint x="1380.5" y="-790" as="targetPoint" />
          </mxGeometry>
        </mxCell>
        <mxCell id="_3rJmXygobrUnK-H9SfO-160" value="" style="endArrow=none;html=1;fontSize=10;strokeColor=#E6E6E6;" edge="1" parent="1">
          <mxGeometry width="50" height="50" relative="1" as="geometry">
            <mxPoint x="1340.5" y="-40.000000000000455" as="sourcePoint" />
            <mxPoint x="1340.5" y="-790" as="targetPoint" />
          </mxGeometry>
        </mxCell>
        <mxCell id="_3rJmXygobrUnK-H9SfO-161" value="" style="endArrow=none;html=1;fontSize=10;strokeColor=#E6E6E6;" edge="1" parent="1">
          <mxGeometry width="50" height="50" relative="1" as="geometry">
            <mxPoint x="1419.4999999999995" y="-40.000000000000455" as="sourcePoint" />
            <mxPoint x="1419.4999999999995" y="-790" as="targetPoint" />
          </mxGeometry>
        </mxCell>
        <mxCell id="_3rJmXygobrUnK-H9SfO-162" value="" style="endArrow=none;html=1;fontSize=10;strokeColor=#E6E6E6;" edge="1" parent="1">
          <mxGeometry width="50" height="50" relative="1" as="geometry">
            <mxPoint x="1500.5" y="-40.000000000000455" as="sourcePoint" />
            <mxPoint x="1500" y="-790" as="targetPoint" />
          </mxGeometry>
        </mxCell>
        <mxCell id="_3rJmXygobrUnK-H9SfO-163" value="" style="endArrow=none;html=1;fontSize=10;strokeColor=#E6E6E6;" edge="1" parent="1">
          <mxGeometry width="50" height="50" relative="1" as="geometry">
            <mxPoint x="1460.5" y="-40.000000000000455" as="sourcePoint" />
            <mxPoint x="1460" y="-790" as="targetPoint" />
          </mxGeometry>
        </mxCell>
        <mxCell id="_3rJmXygobrUnK-H9SfO-164" value="" style="endArrow=none;html=1;fontSize=10;strokeColor=#E6E6E6;" edge="1" parent="1">
          <mxGeometry width="50" height="50" relative="1" as="geometry">
            <mxPoint x="1541" y="-40.000000000000455" as="sourcePoint" />
            <mxPoint x="1540.5" y="-790" as="targetPoint" />
          </mxGeometry>
        </mxCell>
        <mxCell id="_3rJmXygobrUnK-H9SfO-165" value="" style="endArrow=none;html=1;fontSize=10;strokeColor=#E6E6E6;" edge="1" parent="1">
          <mxGeometry width="50" height="50" relative="1" as="geometry">
            <mxPoint x="1621" y="-40.000000000000455" as="sourcePoint" />
            <mxPoint x="1621" y="-790" as="targetPoint" />
          </mxGeometry>
        </mxCell>
        <mxCell id="_3rJmXygobrUnK-H9SfO-166" value="" style="endArrow=none;html=1;fontSize=10;strokeColor=#E6E6E6;" edge="1" parent="1">
          <mxGeometry width="50" height="50" relative="1" as="geometry">
            <mxPoint x="1581" y="-40.000000000000455" as="sourcePoint" />
            <mxPoint x="1581" y="-790" as="targetPoint" />
          </mxGeometry>
        </mxCell>
        <mxCell id="_3rJmXygobrUnK-H9SfO-167" value="" style="endArrow=none;html=1;fontSize=10;strokeColor=#E6E6E6;" edge="1" parent="1">
          <mxGeometry width="50" height="50" relative="1" as="geometry">
            <mxPoint x="1660.0000000000005" y="-40.000000000000455" as="sourcePoint" />
            <mxPoint x="1660.0000000000005" y="-790" as="targetPoint" />
          </mxGeometry>
        </mxCell>
        <mxCell id="_3rJmXygobrUnK-H9SfO-168" value="" style="endArrow=none;html=1;fontSize=10;strokeColor=#E6E6E6;" edge="1" parent="1">
          <mxGeometry width="50" height="50" relative="1" as="geometry">
            <mxPoint x="1741" y="-40.000000000000455" as="sourcePoint" />
            <mxPoint x="1740.5" y="-790" as="targetPoint" />
          </mxGeometry>
        </mxCell>
        <mxCell id="_3rJmXygobrUnK-H9SfO-169" value="" style="endArrow=none;html=1;fontSize=10;strokeColor=#E6E6E6;" edge="1" parent="1">
          <mxGeometry width="50" height="50" relative="1" as="geometry">
            <mxPoint x="1701" y="-40.000000000000455" as="sourcePoint" />
            <mxPoint x="1700.5" y="-790" as="targetPoint" />
          </mxGeometry>
        </mxCell>
        <mxCell id="_3rJmXygobrUnK-H9SfO-170" value="Principle of Database Management" style="text;html=1;strokeColor=none;fillColor=none;align=right;verticalAlign=middle;rounded=0;fontSize=10;rotation=60;whiteSpace=wrap;" vertex="1" parent="1">
          <mxGeometry x="368" y="-860" width="120" height="20" as="geometry" />
        </mxCell>
        <mxCell id="_3rJmXygobrUnK-H9SfO-171" value="Previous course of IT079 (Principle of Database Management)" style="text;html=1;fontSize=10;whiteSpace=wrap;align=right;rotation=60;" vertex="1" parent="1">
          <mxGeometry x="428" y="-865.5" width="120" height="19" as="geometry" />
        </mxCell>
      </root>
    </mxGraphModel>
  </diagram>
</mxfile>
